<?xml version="1.0" encoding="utf-8"?><svg fill="none" viewBox="0 0 689 551" xmlns="http://www.w3.org/2000/svg"><defs /><g transform="matrix(1,0,0,1,396.524,95.832)" id="Layer 6 Outlines"><g id="Group 3" transform="matrix(1,0,0,1,35.271,35.27)"><path fill="#ffffff" fill-opacity="1" d="M35.271,0C35.271,19.479,19.48,35.27,0,35.27C-19.479,35.27,-35.27,19.479,-35.27,0C-35.27,-19.479,-19.479,-35.271,0,-35.271C19.48,-35.271,35.271,-19.479,35.271,0Z" /></g><g id="Group 2" transform="matrix(1,0,0,1,35.271,35.27)"><path fill="#ffffff" fill-opacity="1" d="M28.273,0C28.273,15.614,15.615,28.272,0.001,28.272C-15.614,28.272,-28.272,15.614,-28.272,0C-28.272,-15.615,-15.614,-28.273,0.001,-28.273C15.615,-28.273,28.273,-15.615,28.273,0Z" /></g><g id="Group 1" transform="matrix(1,0,0,1,35.27,35.27)"><path fill="#ff7000" fill-opacity="1" d="M19.448,0C19.448,10.74,10.74,19.448,0,19.448C-10.74,19.448,-19.448,10.74,-19.448,0C-19.448,-10.741,-10.74,-19.448,0,-19.448C10.74,-19.448,19.448,-10.741,19.448,0Z" /></g></g><g id="Layer 15/ic2 Outlines"><g transform="translate(358.5,247.5)"><animateTransform repeatCount="indefinite" type="translate" attributeName="transform" dur="4.004s" begin="0s" calcMode="spline" values="358.5 247.5; 12.5 247.5" keyTimes="0; 1" keySplines="0 0 1 1" fill="freeze" /><g transform="scale(0.815,0.815) translate(-640,-512)"><g id="Group 1" transform="matrix(1,0,0,1,412.725,557.844)"><path fill="#e1e7ef" fill-opacity="1" d="M-190.678,-108.24L-192.034,-108.24L-192.034,-38.716L-199.91,-38.716L-199.91,-32.198L-202.801,-32.198L-202.801,-24.724L-206.021,-24.724L-206.021,29.724L-212.19,29.724L-212.19,108.241L212.19,108.241L212.19,27.533L191.929,18.991L191.929,5.281L188.398,5.281L188.398,-9.384L186.497,-9.384L186.497,-19.161L168.572,-19.161L168.572,-9.384L166.672,-9.384L166.672,5.281L163.682,5.281L163.682,30.539L154.177,30.539L154.177,-13.186L132.179,-13.186L132.179,-42.517L119.687,-42.517L119.687,-50.122L111.81,-50.122L111.81,-59.899L91.442,-59.899L91.442,27.008L72.16,27.008L72.16,-1.237L68.629,-1.237L68.629,-16.99L33.322,-16.99L33.322,-1.237L30.879,-1.237L30.879,36.241L22.46,36.241L22.46,12.614L5.622,12.614L5.622,-20.181L2.905,-20.181L2.905,-27.851L-21.809,-27.851L-21.809,-20.181L-23.982,-20.181L-23.982,21.848L-32.128,21.848L-32.128,4.467L-34.03,4.467L-34.03,-1.237L-51.411,-1.237L-51.411,4.467L-53.584,4.467L-53.584,36.241L-62.003,36.241L-62.003,14.516L-76.668,14.516L-76.668,-8.298L-103.827,-20.181L-103.827,37.465L-115.777,37.465L-115.777,21.848L-133.43,21.848L-133.43,-1.237L-137.232,-1.237L-137.232,-8.298L-158.144,-8.298L-158.144,-1.237L-160.045,-1.237L-160.045,38.414L-170.636,38.414L-170.636,29.724L-176.69,29.724L-176.69,-24.724L-179.91,-24.724L-179.91,-32.198L-182.801,-32.198L-182.801,-38.716L-190.678,-38.716L-190.678,-108.24Z" /></g></g></g></g><g id="Layer 15/ic2 Outlines 2"><g transform="translate(701.5,247.5)"><animateTransform repeatCount="indefinite" type="translate" attributeName="transform" dur="4.004s" begin="0s" calcMode="spline" values="701.5 247.5; 355.5 247.5" keyTimes="0; 1" keySplines="0 0 1 1" fill="freeze" /><g transform="scale(0.815,0.815) translate(-640,-512)"><g id="Group 1" transform="matrix(1,0,0,1,412.725,557.844)"><path fill="#e1e7ef" fill-opacity="1" d="M-190.678,-108.24L-192.034,-108.24L-192.034,-38.716L-199.91,-38.716L-199.91,-32.198L-202.801,-32.198L-202.801,-24.724L-206.021,-24.724L-206.021,29.724L-212.19,29.724L-212.19,108.241L212.19,108.241L212.19,27.533L191.929,18.991L191.929,5.281L188.398,5.281L188.398,-9.384L186.497,-9.384L186.497,-19.161L168.572,-19.161L168.572,-9.384L166.672,-9.384L166.672,5.281L163.682,5.281L163.682,30.539L154.177,30.539L154.177,-13.186L132.179,-13.186L132.179,-42.517L119.687,-42.517L119.687,-50.122L111.81,-50.122L111.81,-59.899L91.442,-59.899L91.442,27.008L72.16,27.008L72.16,-1.237L68.629,-1.237L68.629,-16.99L33.322,-16.99L33.322,-1.237L30.879,-1.237L30.879,36.241L22.46,36.241L22.46,12.614L5.622,12.614L5.622,-20.181L2.905,-20.181L2.905,-27.851L-21.809,-27.851L-21.809,-20.181L-23.982,-20.181L-23.982,21.848L-32.128,21.848L-32.128,4.467L-34.03,4.467L-34.03,-1.237L-51.411,-1.237L-51.411,4.467L-53.584,4.467L-53.584,36.241L-62.003,36.241L-62.003,14.516L-76.668,14.516L-76.668,-8.298L-103.827,-20.181L-103.827,37.465L-115.777,37.465L-115.777,21.848L-133.43,21.848L-133.43,-1.237L-137.232,-1.237L-137.232,-8.298L-158.144,-8.298L-158.144,-1.237L-160.045,-1.237L-160.045,38.414L-170.636,38.414L-170.636,29.724L-176.69,29.724L-176.69,-24.724L-179.91,-24.724L-179.91,-32.198L-182.801,-32.198L-182.801,-38.716L-190.678,-38.716L-190.678,-108.24Z" /></g></g></g></g><g id="Layer 15/ic2 Outlines 3"><g transform="translate(1047.5,247.5)"><animateTransform repeatCount="indefinite" type="translate" attributeName="transform" dur="4.004s" begin="0s" calcMode="spline" values="1047.5 247.5; 701.5 247.5" keyTimes="0; 1" keySplines="0 0 1 1" fill="freeze" /><g transform="scale(0.815,0.815) translate(-640,-512)"><g id="Group 1" transform="matrix(1,0,0,1,412.725,557.844)"><path fill="#e1e7ef" fill-opacity="1" d="M-190.678,-108.24L-192.034,-108.24L-192.034,-38.716L-199.91,-38.716L-199.91,-32.198L-202.801,-32.198L-202.801,-24.724L-206.021,-24.724L-206.021,29.724L-212.19,29.724L-212.19,108.241L212.19,108.241L212.19,27.533L191.929,18.991L191.929,5.281L188.398,5.281L188.398,-9.384L186.497,-9.384L186.497,-19.161L168.572,-19.161L168.572,-9.384L166.672,-9.384L166.672,5.281L163.682,5.281L163.682,30.539L154.177,30.539L154.177,-13.186L132.179,-13.186L132.179,-42.517L119.687,-42.517L119.687,-50.122L111.81,-50.122L111.81,-59.899L91.442,-59.899L91.442,27.008L72.16,27.008L72.16,-1.237L68.629,-1.237L68.629,-16.99L33.322,-16.99L33.322,-1.237L30.879,-1.237L30.879,36.241L22.46,36.241L22.46,12.614L5.622,12.614L5.622,-20.181L2.905,-20.181L2.905,-27.851L-21.809,-27.851L-21.809,-20.181L-23.982,-20.181L-23.982,21.848L-32.128,21.848L-32.128,4.467L-34.03,4.467L-34.03,-1.237L-51.411,-1.237L-51.411,4.467L-53.584,4.467L-53.584,36.241L-62.003,36.241L-62.003,14.516L-76.668,14.516L-76.668,-8.298L-103.827,-20.181L-103.827,37.465L-115.777,37.465L-115.777,21.848L-133.43,21.848L-133.43,-1.237L-137.232,-1.237L-137.232,-8.298L-158.144,-8.298L-158.144,-1.237L-160.045,-1.237L-160.045,38.414L-170.636,38.414L-170.636,29.724L-176.69,29.724L-176.69,-24.724L-179.91,-24.724L-179.91,-32.198L-182.801,-32.198L-182.801,-38.716L-190.678,-38.716L-190.678,-108.24Z" /></g></g></g></g><g id="Layer 5 Outlines"><g transform="translate(567.083,330.636)"><animateTransform repeatCount="indefinite" type="translate" attributeName="transform" dur="4.004s" begin="0s" calcMode="spline" values="567.083 330.636; -167 330.636" keyTimes="0; 1" keySplines="0 0 1 1" fill="freeze" /><g transform="scale(1,1) translate(-14.176,-46.206)"><g id="Group 8" transform="matrix(1,0,0,1,14.176,39.848)"><path fill="#2196f3" fill-opacity="1" d="M13.926,-0.001C13.926,21.868,7.691,39.598,-0.001,39.598C-7.691,39.598,-13.926,21.868,-13.926,-0.001C-13.926,-21.87,-7.691,-39.598,-0.001,-39.598C7.691,-39.598,13.926,-21.87,13.926,-0.001Z" /></g><g id="Group 7" transform="matrix(1,0,0,1,14.176,55.625)"><path fill="#ff7000" fill-opacity="1" d="M0.001,36.538C-0.391,36.538,-0.708,36.221,-0.708,35.829L-0.708,-35.829C-0.708,-36.221,-0.391,-36.538,0.001,-36.538C0.392,-36.538,0.708,-36.221,0.708,-35.829L0.708,35.829C0.708,36.221,0.392,36.538,0.001,36.538Z" /></g><g id="Group 6" transform="matrix(1,0,0,1,17.007,32.7)"><path fill="#ff7000" fill-opacity="1" d="M-2.831,3.574C-3.013,3.574,-3.194,3.506,-3.333,3.367C-3.609,3.091,-3.609,2.641,-3.333,2.365L2.33,-3.298C2.607,-3.574,3.056,-3.574,3.333,-3.298C3.609,-3.022,3.609,-2.573,3.333,-2.296L-2.33,3.367C-2.469,3.506,-2.65,3.574,-2.831,3.574Z" /></g><g id="Group 5" transform="matrix(1,0,0,1,17.007,52.76)"><path fill="#ff7000" fill-opacity="1" d="M-2.831,3.575C-3.013,3.575,-3.194,3.506,-3.333,3.367C-3.609,3.091,-3.609,2.641,-3.333,2.365L2.33,-3.298C2.607,-3.575,3.056,-3.575,3.333,-3.298C3.609,-3.022,3.609,-2.572,3.333,-2.296L-2.33,3.367C-2.469,3.506,-2.65,3.575,-2.831,3.575Z" /></g><g id="Group 4" transform="matrix(1,0,0,1,17.007,69.78)"><path fill="#ff7000" fill-opacity="1" d="M-2.831,3.574C-3.013,3.574,-3.194,3.506,-3.333,3.368C-3.609,3.091,-3.609,2.642,-3.333,2.365L2.33,-3.298C2.607,-3.574,3.056,-3.574,3.333,-3.298C3.609,-3.022,3.609,-2.573,3.333,-2.296L-2.33,3.368C-2.469,3.506,-2.65,3.574,-2.831,3.574Z" /></g><g id="Group 3" transform="matrix(1,0,0,1,11.344,39.588)"><path fill="#ff7000" fill-opacity="1" d="M2.832,3.575C2.65,3.575,2.469,3.506,2.33,3.367L-3.333,-2.296C-3.609,-2.572,-3.609,-3.022,-3.333,-3.298C-3.056,-3.575,-2.607,-3.575,-2.33,-3.298L3.333,2.365C3.609,2.641,3.609,3.091,3.333,3.367C3.194,3.506,3.013,3.575,2.832,3.575Z" /></g><g id="Group 2" transform="matrix(1,0,0,1,11.344,25.936)"><path fill="#ff7000" fill-opacity="1" d="M2.832,3.575C2.65,3.575,2.469,3.506,2.33,3.367L-3.333,-2.296C-3.609,-2.572,-3.609,-3.021,-3.333,-3.298C-3.056,-3.575,-2.607,-3.575,-2.33,-3.298L3.333,2.365C3.609,2.641,3.609,3.091,3.333,3.367C3.194,3.506,3.013,3.575,2.832,3.575Z" /></g><g id="Group 1" transform="matrix(1,0,0,1,11.344,61.654)"><path fill="#ff7000" fill-opacity="1" d="M2.832,3.575C2.65,3.575,2.469,3.506,2.33,3.367L-3.333,-2.296C-3.609,-2.572,-3.609,-3.022,-3.333,-3.298C-3.056,-3.575,-2.607,-3.575,-2.33,-3.298L3.333,2.365C3.609,2.641,3.609,3.09,3.333,3.367C3.194,3.506,3.013,3.575,2.832,3.575Z" /></g></g></g></g><g id="Layer 17 Outlines"><g transform="translate(1305,330.636)"><animateTransform repeatCount="indefinite" type="translate" attributeName="transform" dur="4.004s" begin="0s" calcMode="spline" values="1305 330.636; 567.083 330.636" keyTimes="0; 1" keySplines="0 0 1 1" fill="freeze" /><g transform="scale(1,1) translate(-14.176,-46.206)"><g id="Group 8" transform="matrix(1,0,0,1,14.176,39.848)"><path fill="#2196f3" fill-opacity="1" d="M13.926,-0.001C13.926,21.868,7.691,39.598,-0.001,39.598C-7.691,39.598,-13.926,21.868,-13.926,-0.001C-13.926,-21.87,-7.691,-39.598,-0.001,-39.598C7.691,-39.598,13.926,-21.87,13.926,-0.001Z" /></g><g id="Group 7" transform="matrix(1,0,0,1,14.176,55.625)"><path fill="#ff7000" fill-opacity="1" d="M0.001,36.538C-0.391,36.538,-0.708,36.221,-0.708,35.829L-0.708,-35.829C-0.708,-36.221,-0.391,-36.538,0.001,-36.538C0.392,-36.538,0.708,-36.221,0.708,-35.829L0.708,35.829C0.708,36.221,0.392,36.538,0.001,36.538Z" /></g><g id="Group 6" transform="matrix(1,0,0,1,17.007,32.7)"><path fill="#ff7000" fill-opacity="1" d="M-2.831,3.574C-3.013,3.574,-3.194,3.506,-3.333,3.367C-3.609,3.091,-3.609,2.641,-3.333,2.365L2.33,-3.298C2.607,-3.574,3.056,-3.574,3.333,-3.298C3.609,-3.022,3.609,-2.573,3.333,-2.296L-2.33,3.367C-2.469,3.506,-2.65,3.574,-2.831,3.574Z" /></g><g id="Group 5" transform="matrix(1,0,0,1,17.007,52.76)"><path fill="#ff7000" fill-opacity="1" d="M-2.831,3.575C-3.013,3.575,-3.194,3.506,-3.333,3.367C-3.609,3.091,-3.609,2.641,-3.333,2.365L2.33,-3.298C2.607,-3.575,3.056,-3.575,3.333,-3.298C3.609,-3.022,3.609,-2.572,3.333,-2.296L-2.33,3.367C-2.469,3.506,-2.65,3.575,-2.831,3.575Z" /></g><g id="Group 4" transform="matrix(1,0,0,1,17.007,69.78)"><path fill="#ff7000" fill-opacity="1" d="M-2.831,3.574C-3.013,3.574,-3.194,3.506,-3.333,3.368C-3.609,3.091,-3.609,2.642,-3.333,2.365L2.33,-3.298C2.607,-3.574,3.056,-3.574,3.333,-3.298C3.609,-3.022,3.609,-2.573,3.333,-2.296L-2.33,3.368C-2.469,3.506,-2.65,3.574,-2.831,3.574Z" /></g><g id="Group 3" transform="matrix(1,0,0,1,11.344,39.588)"><path fill="#ff7000" fill-opacity="1" d="M2.832,3.575C2.65,3.575,2.469,3.506,2.33,3.367L-3.333,-2.296C-3.609,-2.572,-3.609,-3.022,-3.333,-3.298C-3.056,-3.575,-2.607,-3.575,-2.33,-3.298L3.333,2.365C3.609,2.641,3.609,3.091,3.333,3.367C3.194,3.506,3.013,3.575,2.832,3.575Z" /></g><g id="Group 2" transform="matrix(1,0,0,1,11.344,25.936)"><path fill="#ff7000" fill-opacity="1" d="M2.832,3.575C2.65,3.575,2.469,3.506,2.33,3.367L-3.333,-2.296C-3.609,-2.572,-3.609,-3.021,-3.333,-3.298C-3.056,-3.575,-2.607,-3.575,-2.33,-3.298L3.333,2.365C3.609,2.641,3.609,3.091,3.333,3.367C3.194,3.506,3.013,3.575,2.832,3.575Z" /></g><g id="Group 1" transform="matrix(1,0,0,1,11.344,61.654)"><path fill="#ff7000" fill-opacity="1" d="M2.832,3.575C2.65,3.575,2.469,3.506,2.33,3.367L-3.333,-2.296C-3.609,-2.572,-3.609,-3.022,-3.333,-3.298C-3.056,-3.575,-2.607,-3.575,-2.33,-3.298L3.333,2.365C3.609,2.641,3.609,3.09,3.333,3.367C3.194,3.506,3.013,3.575,2.832,3.575Z" /></g></g></g></g><g transform="matrix(1,0,0,1,358.754,133.937)" id="Layer 8 Outlines"><g id="Group 1" transform="matrix(1,0,0,1,35.316,11.578)"><path fill="#ffffff" fill-opacity="1" d="M35.066,11.327C34.6,9.116,33.025,7.316,30.949,6.53C30.562,3.26,27.784,0.722,24.41,0.722C23.832,0.722,23.274,0.803,22.741,0.943C22.059,-1.971,19.451,-4.143,16.33,-4.143C15.536,-4.143,14.779,-3.996,14.074,-3.739C13.262,-8.058,9.478,-11.327,4.923,-11.327C-0.061,-11.327,-4.12,-7.412,-4.373,-2.491C-4.381,-2.491,-4.389,-2.492,-4.397,-2.492C-8.037,-2.492,-10.986,0.458,-10.986,4.098C-10.986,4.802,-10.872,5.479,-10.668,6.116C-10.774,6.108,-10.878,6.099,-10.986,6.099C-11.72,6.099,-12.412,6.275,-13.027,6.582C-13.389,3.285,-16.181,0.722,-19.574,0.722C-22.97,0.722,-25.765,3.291,-26.123,6.592C-26.894,6.276,-27.734,6.099,-28.618,6.099C-31.789,6.099,-34.438,8.341,-35.066,11.327L35.066,11.327Z" /></g></g><g transform="matrix(1,0,0,1,150.103,163.571)" id="Layer 7 Outlines"><g id="Group 1" transform="matrix(1,0,0,1,25.834,8.514)"><path fill="#ffffff" fill-opacity="1" d="M25.585,8.264C25.244,6.651,24.095,5.337,22.58,4.764C22.298,2.377,20.272,0.527,17.809,0.527C17.388,0.527,16.98,0.586,16.592,0.688C16.095,-1.438,14.191,-3.023,11.914,-3.023C11.335,-3.023,10.783,-2.915,10.27,-2.728C9.677,-5.879,6.914,-8.264,3.591,-8.264C-0.046,-8.264,-3.006,-5.408,-3.191,-1.817C-3.197,-1.817,-3.203,-1.818,-3.209,-1.818C-5.864,-1.818,-8.017,0.334,-8.017,2.99C-8.017,3.504,-7.934,3.998,-7.785,4.462C-7.862,4.457,-7.938,4.451,-8.017,4.451C-8.552,4.451,-9.057,4.578,-9.506,4.803C-9.77,2.397,-11.807,0.527,-14.283,0.527C-16.761,0.527,-18.799,2.402,-19.061,4.81C-19.623,4.579,-20.237,4.451,-20.881,4.451C-23.196,4.451,-25.127,6.086,-25.585,8.264L25.585,8.264Z" /></g></g><g transform="matrix(1,0,0,1,150.525,433.697)" id="Layer 9 Outlines"><g id="Group 1" transform="matrix(1,0,0,1,166.203,5.805)"><path fill="#e9e5d9" fill-opacity="1" d="M-166.203,0C-166.203,3.206,-91.791,5.805,0,5.805C91.791,5.805,166.203,3.206,166.203,0C166.203,-3.206,91.791,-5.804,0,-5.804C-91.791,-5.804,-166.203,-3.206,-166.203,0Z" /></g></g><g transform="matrix(1,0,0,1,157.476,299.228)" id="Layer 14 Outlines"><g id="Group 6" transform="matrix(1,0,0,1,25.689,21.136)"><path fill="#e9e5d9" fill-opacity="1" d="M-25.439,-14.608L-25.439,20.886L25.439,20.886L25.439,-20.886L-19.162,-20.886C-22.611,-20.886,-25.439,-18.057,-25.439,-14.608Z" /></g><g id="Group 5" transform="matrix(1,0,0,1,88.502,21.136)"><path fill="#e9e5d9" fill-opacity="1" d="M-25.439,20.886L25.439,20.886L25.439,-20.886L-25.439,-20.886L-25.439,20.886Z" /></g><g id="Group 4" transform="matrix(1,0,0,1,151.299,21.136)"><path fill="#e9e5d9" fill-opacity="1" d="M-25.422,20.886L25.422,20.886L25.422,-20.886L-25.422,-20.886L-25.422,20.886Z" /></g><g id="Group 3" transform="matrix(1,0,0,1,214.112,21.136)"><path fill="#e9e5d9" fill-opacity="1" d="M-25.423,20.886L25.423,20.886L25.423,-20.886L-25.423,-20.886L-25.423,20.886Z" /></g><g id="Group 2" transform="matrix(1,0,0,1,280.479,21.136)"><path fill="#e9e5d9" fill-opacity="1" d="M-28.975,-20.886L-28.975,20.886L28.975,20.886L26.491,-4.122C25.525,-13.677,17.591,-20.886,8.003,-20.886L-28.975,-20.886Z" /></g><g id="Group 1" transform="matrix(1,0,0,1,258.954,63.426)"><path fill="#e9e5d9" fill-opacity="1" d="M-4.829,-2.639C-6.278,-2.639,-7.451,-1.466,-7.451,-0.017C-7.451,1.466,-6.278,2.639,-4.829,2.639L4.829,2.639C6.278,2.639,7.451,1.466,7.451,-0.017C7.451,-1.466,6.278,-2.639,4.829,-2.639L-4.829,-2.639Z" /></g></g><g id="Layer 13 Outlines"><g transform="translate(315.414,353.443)"><animateTransform repeatCount="indefinite" type="translate" attributeName="transform" dur="4.004s" begin="0s" calcMode="spline" values="315.414 353.443; 317.414 347.942; 315.414 352.5; 316.414 347.9; 315.414 350.443" keyTimes="0; 0.25; 0.5; 0.75; 1" keySplines="0 0 1 1; 0 0 1 1; 0 0 1 1; 0 0 1 1" fill="freeze" /><g transform="scale(1,1) translate(-168.978,-64.564)"><g id="Group 21" transform="matrix(1,0,0,1,168.978,96.73)"><path fill="#2196f3" fill-opacity="1" d="M-150.756,24.214L-168.728,24.214L-168.728,27.87C-168.728,30.25,-166.796,32.148,-164.45,32.148L151.273,32.148C161.07,32.148,168.728,23.696,167.762,13.935L166.83,4.794L166.762,4.794L157.551,4.794C156.24,4.794,155.172,3.828,154.999,2.552L152.861,-14.625C152.654,-16.143,153.827,-17.523,155.379,-17.523L164.622,-17.523L163.139,-32.148L-168.728,-32.148L-168.728,-16.937L-164.002,-16.937C-162.898,-16.937,-162.001,-16.039,-162.001,-14.935L-162.001,-3.104C-162.001,-1.966,-162.898,-1.07,-164.002,-1.07L-168.728,-1.07L-168.728,12.383L-150.756,12.383C-149.928,12.383,-149.273,13.073,-149.273,13.901L-149.273,22.732C-149.273,23.56,-149.928,24.214,-150.756,24.214ZM96.186,-25.596L105.845,-25.596C107.293,-25.596,108.466,-24.423,108.466,-22.974C108.466,-21.491,107.293,-20.318,105.845,-20.318L96.186,-20.318C94.738,-20.318,93.565,-21.491,93.565,-22.974C93.565,-24.423,94.738,-25.596,96.186,-25.596Z" /></g><g id="Group 20" transform="matrix(1,0,0,1,328.719,90.365)"><path fill="#ff7000" fill-opacity="1" d="M7.089,11.158L4.88,-11.158L-4.364,-11.158C-5.916,-11.158,-7.089,-9.779,-6.882,-8.262L-4.744,8.917C-4.571,10.193,-3.502,11.158,-2.191,11.158L7.019,11.158L7.089,11.158Z" /></g><g id="Group 19" transform="matrix(1,0,0,1,267.547,112.972)"><path fill="#3b4d57" fill-opacity="1" d="M-31.807,15.903C-31.807,-1.664,-17.567,-15.905,0,-15.905C17.566,-15.905,31.807,-1.664,31.807,15.903L31.807,15.905L-31.807,15.905L-31.807,15.903Z" /></g><g id="Group 18" transform="matrix(1,0,0,1,65.55,112.972)"><path fill="#3b4d57" fill-opacity="1" d="M-31.807,15.903C-31.807,-1.664,-17.567,-15.905,0,-15.905C17.567,-15.905,31.807,-1.664,31.807,15.903L31.807,15.905L-31.807,15.905L-31.807,15.903Z" /></g><g id="Group 17" transform="matrix(1,0,0,1,166.184,32.416)"><path fill="#2196f3" fill-opacity="1" d="M133.336,-32.166L-161.657,-32.166C-164.002,-32.166,-165.933,-30.233,-165.933,-27.888L-165.933,32.166L165.933,32.166L162.104,-6.089C160.655,-20.887,148.203,-32.166,133.336,-32.166ZM-104.016,-21.818L-104.016,19.955L-154.894,19.955L-154.894,-15.539C-154.894,-18.988,-152.067,-21.818,-148.618,-21.818L-104.016,-21.818ZM-41.204,19.955L-92.083,19.955L-92.083,-21.818L-41.204,-21.818L-41.204,19.955ZM21.575,19.955L-29.269,19.955L-29.269,-21.818L21.575,-21.818L21.575,19.955ZM84.389,19.955L33.544,19.955L33.544,-21.818L84.389,-21.818L84.389,19.955ZM96.358,-21.818L133.336,-21.818C142.925,-21.818,150.86,-14.609,151.826,-5.054L154.308,19.955L96.358,19.955L96.358,-21.818Z" /></g><g id="Group 16" transform="matrix(1,0,0,1,307.063,31.484)"><path fill="#c3e7f3" fill-opacity="1" d="M11.118,20.886L8.474,20.886L-11.118,-20.886L-8.475,-20.886L11.118,20.886Z" /></g><g id="Group 15" transform="matrix(1,0,0,1,295.363,31.484)"><path fill="#c3e7f3" fill-opacity="1" d="M-12.44,-20.886L-7.151,-20.886L12.44,20.886L7.153,20.886L-12.44,-20.886Z" /></g><g id="Group 14" transform="matrix(1,0,0,1,279.696,31.484)"><path fill="#c3e7f3" fill-opacity="1" d="M-13.763,-20.886L-5.83,-20.886L13.763,20.886L5.83,20.886L-13.763,-20.886Z" /></g><g id="Group 13" transform="matrix(1,0,0,1,287.822,31.484)"><path fill="#c3e7f3" fill-opacity="1" d="M-11.118,-20.886L-8.475,-20.886L11.118,20.886L8.475,20.886L-11.118,-20.886Z" /></g><g id="Group 12" transform="matrix(1,0,0,1,234.847,31.484)"><path fill="#c3e7f3" fill-opacity="1" d="M11.119,20.886L8.474,20.886L-11.119,-20.886L-8.474,-20.886L11.119,20.886Z" /></g><g id="Group 11" transform="matrix(1,0,0,1,223.147,31.484)"><path fill="#c3e7f3" fill-opacity="1" d="M-12.44,-20.886L-7.152,-20.886L12.44,20.886L7.152,20.886L-12.44,-20.886Z" /></g><g id="Group 10" transform="matrix(1,0,0,1,215.606,31.484)"><path fill="#c3e7f3" fill-opacity="1" d="M-11.118,-20.886L-8.475,-20.886L11.118,20.886L8.474,20.886L-11.118,-20.886Z" /></g><g id="Group 9" transform="matrix(1,0,0,1,171.959,31.484)"><path fill="#c3e7f3" fill-opacity="1" d="M11.118,20.886L8.474,20.886L-11.118,-20.886L-8.475,-20.886L11.118,20.886Z" /></g><g id="Group 8" transform="matrix(1,0,0,1,160.258,31.484)"><path fill="#c3e7f3" fill-opacity="1" d="M-12.44,-20.886L-7.152,-20.886L12.44,20.886L7.152,20.886L-12.44,-20.886Z" /></g><g id="Group 7" transform="matrix(1,0,0,1,152.717,31.484)"><path fill="#c3e7f3" fill-opacity="1" d="M-11.118,-20.886L-8.475,-20.886L11.118,20.886L8.474,20.886L-11.118,-20.886Z" /></g><g id="Group 6" transform="matrix(1,0,0,1,111.437,31.484)"><path fill="#c3e7f3" fill-opacity="1" d="M11.118,20.886L8.474,20.886L-11.118,-20.886L-8.475,-20.886L11.118,20.886Z" /></g><g id="Group 5" transform="matrix(1,0,0,1,99.737,31.484)"><path fill="#c3e7f3" fill-opacity="1" d="M-12.44,-20.886L-7.152,-20.886L12.44,20.886L7.152,20.886L-12.44,-20.886Z" /></g><g id="Group 4" transform="matrix(1,0,0,1,92.196,31.484)"><path fill="#c3e7f3" fill-opacity="1" d="M-11.118,-20.886L-8.475,-20.886L11.118,20.886L8.474,20.886L-11.118,-20.886Z" /></g><g id="Group 3" transform="matrix(1,0,0,1,48.835,31.484)"><path fill="#c3e7f3" fill-opacity="1" d="M11.118,20.886L8.474,20.886L-11.118,-20.886L-8.475,-20.886L11.118,20.886Z" /></g><g id="Group 2" transform="matrix(1,0,0,1,37.136,31.484)"><path fill="#c3e7f3" fill-opacity="1" d="M-12.441,-20.886L-7.153,-20.886L12.441,20.886L7.152,20.886L-12.441,-20.886Z" /></g><g id="Group 1" transform="matrix(1,0,0,1,29.594,31.484)"><path fill="#c3e7f3" fill-opacity="1" d="M-11.118,-20.886L-8.475,-20.886L11.118,20.886L8.474,20.886L-11.118,-20.886Z" /></g></g></g></g><g id="Layer 10 Outlines"><g transform="translate(414.983,417.755)"><g transform="rotate(0)"><animateTransform repeatCount="indefinite" type="rotate" attributeName="transform" dur="4.004s" begin="0s" calcMode="spline" values="0; 1800" keyTimes="0; 1" keySplines="0 0 1 1" fill="freeze" /><g transform="scale(1,1) translate(-25.981,-25.981)"><g id="Group 3" transform="matrix(1,0,0,1,25.981,25.981)"><path fill="#606e72" fill-opacity="1" d="M-25.731,0C-25.731,14.21,-14.211,25.731,-0.001,25.731C14.21,25.731,25.731,14.21,25.731,0C25.731,-14.211,14.21,-25.731,-0.001,-25.731C-14.211,-25.731,-25.731,-14.211,-25.731,0Z" /></g><g id="Group 2" transform="matrix(1,0,0,1,25.981,25.981)"><path fill="#e9e5d9" fill-opacity="1" d="M-9.896,0C-9.896,5.465,-5.466,9.896,-0.001,9.896C5.465,9.896,9.896,5.465,9.896,0C9.896,-5.466,5.465,-9.896,-0.001,-9.896C-5.466,-9.896,-9.896,-5.466,-9.896,0Z" /></g><g id="Group 1" transform="matrix(1,0,0,1,33.862,6.862)"><path fill="#e9e5d9" fill-opacity="1" d="M-8.495,-4.257C-8.495,-4.257,4.436,-4.929,8.495,4.929C8.495,4.929,-3.614,-2.728,-8.495,-4.257Z" /></g></g></g></g></g><g id="Layer 12 Outlines"><g transform="translate(308.563,379.836)"><animateTransform repeatCount="indefinite" type="translate" attributeName="transform" dur="4.004s" begin="0s" calcMode="spline" values="308.563 379.836; 309.563 375.836; 308.563 379.836; 309.563 375.836; 309.563 379.836" keyTimes="0; 0.25; 0.5; 0.75; 1" keySplines="0.167 0.167 0.667 1; 0.333 0 0.667 1; 0.333 0 0.667 1; 0.333 0 0.667 1" fill="freeze" /><g transform="scale(1,1) translate(-54.169,-14.793)"><g id="Group 10" transform="matrix(1,0,0,1,44.781,15.094)"><path fill="#2196f3" fill-opacity="1" d="M4.818,-8.077L4.818,-3.79L2.763,-3.79C1.771,-3.79,0.921,-3.436,0.248,-2.692C-0.425,-1.948,-0.78,-1.062,-0.78,-0.035L-0.78,8.077L-4.818,8.077L-4.818,-0.035C-4.818,-1.134,-4.606,-2.196,-4.216,-3.153C-3.826,-4.145,-3.259,-4.995,-2.586,-5.703C-1.913,-6.448,-1.099,-7.015,-0.177,-7.404C0.744,-7.829,1.736,-8.042,2.763,-8.042L4.818,-8.042L4.818,-8.077Z" /></g><g id="Group 9" transform="matrix(1,0,0,1,31.832,11.676)"><path fill="#2196f3" fill-opacity="1" d="M4.801,7.032L4.801,11.425L2.78,11.425C1.718,11.425,0.761,11.213,-0.159,10.753C-1.081,10.292,-1.86,9.689,-2.569,8.945C-3.242,8.201,-3.808,7.316,-4.199,6.289C-4.588,5.262,-4.801,4.198,-4.801,3.029L-4.801,-11.425L-0.797,-11.425L-0.797,-2.214L4.801,-2.214L4.801,2.179L-0.797,2.179L-0.797,3.029C-0.797,4.127,-0.443,5.084,0.23,5.828C0.903,6.608,1.789,6.961,2.781,6.961L4.801,6.961L4.801,7.032Z" /></g><g id="Group 8" transform="matrix(1,0,0,1,15.589,15.13)"><path fill="#2196f3" fill-opacity="1" d="M-8.041,-0.036C-8.041,-1.134,-7.829,-2.197,-7.404,-3.154C-6.979,-4.145,-6.413,-4.994,-5.704,-5.703C-4.96,-6.412,-4.11,-7.015,-3.153,-7.44C-2.162,-7.865,-1.134,-8.078,-0.036,-8.078C1.098,-8.078,2.162,-7.865,3.153,-7.44C4.146,-7.015,4.996,-6.412,5.704,-5.703C6.448,-4.959,7.014,-4.11,7.439,-3.154C7.864,-2.161,8.077,-1.134,8.077,-0.036L8.077,8.078L3.826,8.078L3.826,-0.036C3.826,-0.532,3.719,-1.027,3.507,-1.523C3.294,-1.983,3.046,-2.409,2.692,-2.727C2.373,-3.046,1.949,-3.329,1.488,-3.542C1.028,-3.755,0.496,-3.826,-0.036,-3.826C-1.099,-3.826,-2.019,-3.472,-2.727,-2.727C-3.471,-1.983,-3.826,-1.098,-3.826,-0.036L-3.826,8.078L-8.077,8.078L-8.077,-0.036L-8.041,-0.036Z" /></g><g id="Group 7" transform="matrix(1,0,0,1,2.251,14.864)"><path fill="#2196f3" fill-opacity="1" d="M-2.001,-8.272L2.001,-8.272L2.001,8.272L-2.001,8.272L-2.001,-8.272Z" /></g><g id="Group 6" transform="matrix(1,0,0,1,2.269,2.288)"><path fill="#2196f3" fill-opacity="1" d="M1.984,0.017C1.984,1.115,1.098,2.001,0,2.001C-1.098,2.001,-1.984,1.115,-1.984,0.017C-1.984,-1.081,-1.098,-1.966,0,-1.966C1.098,-2.001,1.984,-1.081,1.984,0.017Z" /></g><g id="Group 5" transform="matrix(1,0,0,1,100.046,17.911)"><path fill="#2196f3" fill-opacity="1" d="M8.042,-11.425L8.042,3.029C8.042,4.198,7.83,5.261,7.404,6.288C6.979,7.315,6.412,8.166,5.668,8.945C4.96,9.689,4.074,10.291,3.118,10.752C2.125,11.212,1.098,11.425,0,11.425L-2.196,11.425L-2.196,7.032L0,7.032C0.85,7.032,1.594,6.784,2.232,6.324C2.87,5.863,3.295,5.225,3.543,4.446C3.011,4.729,2.444,4.942,1.842,5.084C1.24,5.225,0.638,5.296,0,5.296C-1.098,5.296,-2.161,5.084,-3.118,4.623C-4.109,4.162,-4.959,3.596,-5.668,2.816C-6.412,2.073,-6.979,1.187,-7.404,0.159C-7.829,-0.868,-8.042,-1.931,-8.042,-3.1L-8.042,-11.425L-3.791,-11.425L-3.791,-3.1C-3.791,-2.002,-3.437,-1.045,-2.692,-0.301C-1.948,0.478,-1.063,0.868,0.071,0.868C0.567,0.868,1.063,0.762,1.559,0.549C2.02,0.336,2.444,0.053,2.763,-0.301C3.118,-0.655,3.366,-1.081,3.578,-1.577C3.791,-2.072,3.897,-2.569,3.897,-3.1L3.897,-11.425L8.042,-11.425Z" /></g><g id="Group 4" transform="matrix(1,0,0,1,83.839,11.676)"><path fill="#2196f3" fill-opacity="1" d="M4.801,7.032L4.801,11.425L2.78,11.425C1.718,11.425,0.761,11.213,-0.16,10.753C-1.081,10.292,-1.86,9.689,-2.569,8.945C-3.242,8.201,-3.809,7.316,-4.199,6.289C-4.588,5.262,-4.801,4.198,-4.801,3.029L-4.801,-11.425L-0.798,-11.425L-0.798,-2.214L4.801,-2.214L4.801,2.179L-0.798,2.179L-0.798,3.029C-0.798,4.127,-0.443,5.084,0.23,5.828C0.903,6.608,1.753,6.961,2.78,6.961L4.801,6.961L4.801,7.032Z" /></g><g id="Group 3" transform="matrix(1,0,0,1,73.742,14.864)"><path fill="#2196f3" fill-opacity="1" d="M-2.001,-8.272L2.001,-8.272L2.001,8.272L-2.001,8.272L-2.001,-8.272Z" /></g><g id="Group 2" transform="matrix(1,0,0,1,61.591,14.97)"><path fill="#2196f3" fill-opacity="1" d="M3.88,2.639L3.737,2.745C3.028,3.525,2.144,3.914,1.081,3.914C0.054,3.914,-0.833,3.525,-1.612,2.745C-2.002,2.356,-2.25,1.932,-2.427,1.471C-2.604,1.011,-2.674,0.514,-2.674,-0.018C-2.674,-1.045,-2.321,-1.895,-1.577,-2.604C-1.187,-2.994,-0.762,-3.276,-0.302,-3.453C0.159,-3.631,0.655,-3.737,1.151,-3.737C1.647,-3.737,2.109,-3.667,2.569,-3.489C3.029,-3.313,3.455,-3.028,3.809,-2.674L3.914,-2.568L6.891,-5.58L6.785,-5.685C6.005,-6.464,5.12,-7.067,4.128,-7.456C3.136,-7.846,2.144,-8.06,1.117,-8.06C0.089,-8.06,-0.904,-7.846,-1.931,-7.456C-2.923,-7.067,-3.807,-6.464,-4.587,-5.685C-5.367,-4.905,-5.933,-4.021,-6.323,-3.029C-6.713,-2.037,-6.891,-1.01,-6.891,-0.018C-6.891,1.045,-6.713,2.037,-6.323,3.029C-5.933,3.985,-5.367,4.871,-4.587,5.651C-3.807,6.465,-2.923,7.069,-1.931,7.458C-0.939,7.848,0.089,8.06,1.117,8.06C2.144,8.06,3.136,7.848,4.128,7.458C5.12,7.069,6.005,6.465,6.785,5.651L6.891,5.544L3.88,2.639Z" /></g><g id="Group 1" transform="matrix(1,0,0,1,73.725,2.288)"><path fill="#2196f3" fill-opacity="1" d="M1.984,0.017C1.984,1.115,1.098,2.001,0,2.001C-1.098,2.001,-1.984,1.115,-1.984,0.017C-1.984,-1.081,-1.098,-1.966,0,-1.966C1.098,-2.001,1.984,-1.081,1.984,0.017Z" /></g></g></g></g><g id="Layer 11 Outlines"><g transform="translate(211.987,417.755)"><g transform="rotate(0)"><animateTransform repeatCount="indefinite" type="rotate" attributeName="transform" dur="4.004s" begin="0s" calcMode="spline" values="0; 1800" keyTimes="0; 1" keySplines="0.167 0.167 0.667 1" fill="freeze" /><g transform="scale(1,1) translate(-25.981,-25.981)"><g id="Group 3" transform="matrix(1,0,0,1,25.981,25.981)"><path fill="#606e72" fill-opacity="1" d="M-25.731,0C-25.731,14.21,-14.211,25.731,0,25.731C14.21,25.731,25.731,14.21,25.731,0C25.731,-14.211,14.21,-25.731,0,-25.731C-14.211,-25.731,-25.731,-14.211,-25.731,0Z" /></g><g id="Group 2" transform="matrix(1,0,0,1,25.98,25.981)"><path fill="#e9e5d9" fill-opacity="1" d="M-9.896,0C-9.896,5.465,-5.466,9.896,0,9.896C5.466,9.896,9.896,5.465,9.896,0C9.896,-5.466,5.466,-9.896,0,-9.896C-5.466,-9.896,-9.896,-5.466,-9.896,0Z" /></g><g id="Group 1" transform="matrix(1,0,0,1,34.529,43.405)"><path fill="#e9e5d9" fill-opacity="1" d="M8.886,-5.266C8.886,-5.266,1.352,5.266,-8.886,2.297C-8.886,2.297,4.648,-2.401,8.886,-5.266Z" /></g></g></g></g></g></svg>